<?xml version="1.0" standalone="no"?>
<!DOCTYPE svg PUBLIC "-//W3C//DTD SVG 20010904//EN"
 "http://www.w3.org/TR/2001/REC-SVG-20010904/DTD/svg10.dtd">
<svg version="1.0" xmlns="http://www.w3.org/2000/svg"
 width="700.000000pt" height="700.000000pt" viewBox="0 0 700.000000 700.000000"
 preserveAspectRatio="xMidYMid meet">
<metadata>
Created by potrace 1.11, written by Peter Selinger 2001-2013
</metadata>
<g transform="translate(0.000000,700.000000) scale(0.100000,-0.100000)"
fill="#000000" stroke="none">
<path d="M3290 6595 c-102 -16 -258 -65 -355 -111 -220 -103 -428 -300 -534
-504 -79 -153 -120 -307 -122 -458 -1 -87 -2 -90 -27 -102 -127 -57 -341 -246
-431 -379 -214 -315 -246 -708 -86 -1047 60 -129 114 -205 224 -315 100 -100
165 -148 291 -217 l75 -41 484 -1438 c266 -791 493 -1456 505 -1478 25 -48 99
-100 152 -108 84 -13 181 35 220 108 12 22 239 687 505 1478 l484 1439 50 25
c164 83 360 252 454 392 176 260 231 585 150 882 -26 97 -115 278 -178 360
-95 124 -287 287 -402 339 -25 11 -27 17 -33 108 -24 341 -176 622 -445 825
-274 207 -636 296 -981 242z"/>
</g>
</svg>
