<svg xmlns="http://www.w3.org/2000/svg" viewBox="0 0 47.4 47.4"><title>Ресурс 14</title><path d="M23.7,0A23.7,23.7,0,1,0,47.4,23.7,23.7,23.7,0,0,0,23.7,0Zm0,45.4A21.7,21.7,0,1,1,45.4,23.7,21.73,21.73,0,0,1,23.7,45.4ZM39.26,21c-.81-1.91-3.59-2.74-4.75-3l-.29-.07c1.43-2.9.75-7.64.22-9.24l-3.06.25c-.06,1-.77,2.88-3.44,5L26.25,15.1a12.21,12.21,0,0,0-4.69,0L20,14c-2.67-2.13-3.38-4-3.44-5l-3.06-.25c-.53,1.59-1.2,6.29.2,9.19l-.1,0c-1.16.27-3.94,1.1-4.75,3A2.31,2.31,0,0,0,9,23.2a2.42,2.42,0,0,0,2.13,1,9.11,9.11,0,0,0,3.06-.76A17.34,17.34,0,0,0,16,32.21a5.16,5.16,0,0,0-.33,2.62c.46,3.39,4.24,5.24,8.48,5.24s8-1.85,8.52-5.24a5.2,5.2,0,0,0-.52-3.08,17.05,17.05,0,0,0,1.58-8.34,9.37,9.37,0,0,0,3.26.84,2.42,2.42,0,0,0,2.13-1A2.31,2.31,0,0,0,39.26,21Zm-28.59.78c.5-1.18,3.36-1.85,3.36-1.85a2.34,2.34,0,0,0,.47,1.15C13.82,21.64,10.16,22.95,10.67,21.77Zm5.15-4.13c-1.29-1.37-1.11-4.81-.71-7,.14,2.54,3.74,5,3.74,5A22.05,22.05,0,0,0,15.82,17.64Zm14.49,13.3-.38.86.42.84a3.2,3.2,0,0,1,.33,1.91C30.33,37,27,38.07,24.13,38.07S18,37,17.63,34.56a3.17,3.17,0,0,1,.21-1.61l.32-.8-.37-.78c-2-4.37-2.22-8.62-.47-11.37,1.29-2,3.59-3.11,6.64-3.11s5.29,1.05,6.59,3C32.28,22.57,32.19,26.69,30.31,30.94Zm1.8-13.4a22,22,0,0,0-3-2s3.59-2.48,3.74-5C33.22,12.74,33.4,16.17,32.11,17.54Zm1.47,3.53a2.34,2.34,0,0,0,.47-1.15s2.86.66,3.36,1.85S34.26,21.64,33.58,21.07Z" fill="#323232"/></svg>