<svg xmlns="http://www.w3.org/2000/svg" xmlns:xlink="http://www.w3.org/1999/xlink" viewBox="0 0 1200 2416"><title>Ресурс 6</title><g opacity="0.2"><path d="M1030.33,23H970a16,16,0,1,0,0,32h60.33a16,16,0,1,0,0-32Z" fill="#fff" fill-rule="evenodd"/></g><image width="32" height="13" transform="translate(998 33)" xlink:href="Ресурс 61.png"/><g style="isolation:isolate"><image width="1200" height="2416" xlink:href="Ресурс 62.png"/><path d="M987.06,29H976a3,3,0,0,0-3,3v1h2V31h13V46H975V44h-2v1a3,3,0,0,0,3,3h11.06a3,3,0,0,0,3-3V32A3,3,0,0,0,987.06,29ZM976,43.76l7-5.3-7-5.3V35.9h-6V41h6Z" fill="none"/></g></svg>