<svg xmlns="http://www.w3.org/2000/svg" viewBox="0 0 47.4 47.4"><title>Ресурс 12</title><path d="M23.7,0A23.7,23.7,0,1,0,47.4,23.7,23.7,23.7,0,0,0,23.7,0Zm0,45.4A21.7,21.7,0,1,1,45.4,23.7,21.73,21.73,0,0,1,23.7,45.4ZM23.59,7.14A8.57,8.57,0,0,0,15,15.71V30.39a.81.81,0,0,0,.81.81H31.36a.81.81,0,0,0,.81-.81V15.71a8.58,8.58,0,0,0-8.58-8.58Zm7,22.45H16.63V18.69l.14.16a2.62,2.62,0,0,0,4.31,0c.37-.41.55-.59.95-.6a1.06,1.06,0,0,1,.31.43,10.69,10.69,0,0,1,.49,1.23,9.72,9.72,0,0,0,.7,1.65,1.75,1.75,0,0,0,3.24,0,9.72,9.72,0,0,0,.7-1.65,10.6,10.6,0,0,1,.49-1.23,1.06,1.06,0,0,1,.31-.43c.4,0,.58.18.95.6a3.17,3.17,0,0,0,1.35,1Zm-9,8.58a2,2,0,1,0,4.1,0V32h-4.1Z" fill="#323232"/></svg>