<svg xmlns="http://www.w3.org/2000/svg" viewBox="0 0 31.38 31.38"><g opacity=".8"><path d="M20.59,14.51a4.92,4.92,0,1,1-9.53,0H9.68v6.79a.61.61,0,0,0,.61.61H21.36a.61.61,0,0,0,.61-.61V14.51Zm-4.76,4.07a3,3,0,0,0,3.07-2.84,3,3,0,0,0-3.07-2.84,2.84,2.84,0,1,0,0,5.68ZM15.69,0A15.69,15.69,0,1,0,31.38,15.69,15.69,15.69,0,0,0,15.69,0Zm8,21.87A1.74,1.74,0,0,1,22,23.61H9.64a1.74,1.74,0,0,1-1.74-1.74V9.55A1.74,1.74,0,0,1,9.64,7.81H22a1.74,1.74,0,0,1,1.74,1.74ZM21.39,9.59H19.52a.61.61,0,0,0-.61.61v1.86a.61.61,0,0,0,.61.61h1.86a.61.61,0,0,0,.61-.61V10.2A.61.61,0,0,0,21.39,9.59Z" fill="#fff"/></g></svg>