<svg xmlns="http://www.w3.org/2000/svg" width="153.09" viewBox="0 0 153.094 63.25"><path d="m172.25 54.33c-1.742-1.855-4.228-2.08-7-2.08h-.236a13.545 13.545 0 0 0 -8.977 -4.4c-3.5-.227-6.363-.225-8.835.831.083-.669.152-1.546.209-2.224a4.274 4.274 0 0 0 1.635 .211c3.068 0 6.287-2.584 6.567-8.248.133-3.125-.38-5.411-1.485-6.563a2.663 2.663 0 0 0 -1.943 -.867c-1.647 0-3.189 1.443-4.394 4.056 0-.286-.007-.539-.011-.77-.008-.478-.015-.872-.015-1.313 0-1.105-.053-1.731-1.137-1.731a1.533 1.533 0 0 0 -1.081 .48 2.559 2.559 0 0 0 -.606 1.939c.027 1.384.032 2.785.016 4.281-.5 2.245-1.405 4.01-2.339 4.7a17.468 17.468 0 0 0 1.113 -4.254c.416-3.02-.042-5.638-1.227-7a2.1 2.1 0 0 0 -1.986 -.818 3.606 3.606 0 0 0 -2.11 1.259 .941 .941 0 0 0 -1.251 -.341c-2.581 1.022-4.222 4.03-4.39 8.04a8.055 8.055 0 0 0 1.886 5.987 4.312 4.312 0 0 0 3.153 1.4 4.586 4.586 0 0 0 3.656 -2.164 4.579 4.579 0 0 0 3.352 -2.005c-.119 2.493-.31 4.939-.567 7.3a17.977 17.977 0 0 0 -5.191 6.54c-1.982 3.934-1.764 7.546-.722 9.239a2.032 2.032 0 0 0 1.677 1.114c3.089 0 5.571-8.574 6.777-16.02a14.878 14.878 0 0 1 8.433 -1.97 11.58 11.58 0 0 1 6.81 2.184 8.432 8.432 0 0 0 -5.887 7.093 5.578 5.578 0 0 0 1.123 4.43 4.186 4.186 0 0 0 3.51 1.395 6.062 6.062 0 0 0 4.354 -2.008 8.591 8.591 0 0 0 1.849 -6.372 9.2 9.2 0 0 0 -.605 -2.767c3.908.64 6.258 3.985 6.06 8.758a10.014 10.014 0 0 1 -9.894 9.407c-3 0-5.2-.734-6.357-2.12a4.525 4.525 0 0 1 -.873 -3.772c.029-.144.058-.269.083-.378a1.043 1.043 0 0 0 -.052 -.951 .643 .643 0 0 0 -.531 -.237 1.715 1.715 0 0 0 -.386 .055 3.443 3.443 0 0 0 -2.479 3.194c0 2.937 3.13 6.1 10 6.1 7.138 0 12.435-4.329 12.885-11.1a9.516 9.516 0 0 0 -2.576 -7.523m-34.958-20.538a12.444 12.444 0 0 0 -.58 5.411 6.581 6.581 0 0 0 2.586 4.921 1.513 1.513 0 0 1 -2.041 -.337 6.59 6.59 0 0 1 -1.286 -4.741 10.554 10.554 0 0 1 1.321 -5.254m4.381 4.738a9.743 9.743 0 0 1 -1.008 4.131c-1.171-.72-1.665-2.5-1.726-3.915-.126-2.524.94-4.694 1.789-4.938a.338 .338 0 0 1 .2 .126c.47.498.902 2.148.745 4.597m7.328 6.099a2.2 2.2 0 0 1 -1.394 -.39l.064-1.027c1.053-6.795 3.108-9.673 3.748-9.673a.317 .317 0 0 1 .244 .132c.457.486.869 2.161.657 5.4-.248 3.484-1.49 5.562-3.322 5.562m-8.336 19.084a.425 .425 0 0 1 -.28 -.233c-.485-.785-.561-3.245 1.219-6.806a15.363 15.363 0 0 1 2.142 -3.214c-1.038 6.638-2.497 9.973-3.081 10.257m22.624-2.783a2.756 2.756 0 0 1 -2.037 .916h-.106a2.408 2.408 0 0 1 -1.9 -.837 3.858 3.858 0 0 1 -.583 -3.126 5.928 5.928 0 0 1 4.95 -5 7.025 7.025 0 0 1 1.012 3.342 6.338 6.338 0 0 1 -1.336 4.709m-30.7-14.204c-.706-.257-1.436-1.93-.9-8.443.288-3.707.407-5.851-.485-6.815a1.625 1.625 0 0 0 -1.243 -.51c-2.142 0-4.206 2.607-5.643 5.732a62.808 62.808 0 0 1 .461 -6.927 10.828 10.828 0 0 0 5.118 -5.162c1.819-3.574 1.584-7.381.411-9.294a2.047 2.047 0 0 0 -1.662 -1.146c-2.716 0-5.229 5.687-6.433 14.523a8.745 8.745 0 0 1 -3.616 .077 5.491 5.491 0 0 1 -.89 -.235 6.814 6.814 0 0 0 2.914 -5.475 5.952 5.952 0 0 0 -1.413 -4.5 7.23 7.23 0 0 0 -5.263 -2.1c-.119 0-.24-.006-.362-.006-4.45 0-9.151 2.4-9.528 6.991-.385 4.03 3.193 6.385 6.652 8.658l.7.457c3.306 2.219 6.235 4.527 5.763 8.348-.383 3.134-4.334 5.658-8.542 5.332a7.315 7.315 0 0 1 -5.2 -2.563 6.725 6.725 0 0 1 -1.432 -5.144c.266-1.976 1.128-3.487 3.093-5.41a1.247 1.247 0 0 0 .507 -1.26 .773 .773 0 0 0 -.986 -.382 8.416 8.416 0 0 0 -3.021 1.227 7.593 7.593 0 0 0 -2.288 5.183c-.237 4.214 1.929 9.557 8.814 10.745a12.461 12.461 0 0 0 2.091 .179c5.606 0 10.06-3.777 10.369-8.787.271-4.7-3.352-7.339-6.772-9.45l-.375-.226c-3.318-2.01-6.453-3.908-5.965-7.635.385-2.849 3.109-4.125 5.637-4.125.179 0 .358.006.539.018 2.8.18 4.368 1.782 4.409 4.513a4.36 4.36 0 0 1 -1.047 3.076 1.483 1.483 0 0 1 -.984 .5 .982 .982 0 0 1 -.833 -.659 3.935 3.935 0 0 1 -.064 -2.181l.082-.25a1.078 1.078 0 0 0 .039 -1.033 .641 .641 0 0 0 -.54 -.254 1.819 1.819 0 0 0 -.389 .053 3.031 3.031 0 0 0 -2.288 2.588c-.086 2.378 1.342 5.12 5.606 5.689a14.436 14.436 0 0 0 4.374 -.04c-.272 2.5-.447 5.15-.521 7.891-.034 1.627-.061 2.582-.081 3.3-.03 1.081-.046 1.618-.046 3.075 0 1.246.184 1.689 1.221 1.689.57 0 1.548-.478 1.6-2.208 1.03-6.823 3.849-10.595 4.576-10.633a6.662 6.662 0 0 1 -.06 2.078c-.1.949-.22 2.13-.25 3.55-.125 5.843 1.01 8.811 3.452 9.08 1.211.149 1.436-.4 1.482-.624a.981 .981 0 0 0 -.787 -1.065m-7.489-19.319c.975-6.274 2.444-9.839 2.989-10.09a.777 .777 0 0 1 .292 .408 8.868 8.868 0 0 1 -.816 6.674 8.174 8.174 0 0 1 -2.465 3.003m-25.743 4.341l-.149-.192a.974 .974 0 0 0 -.823 -.288c-.871 0-2.3.416-2.428 1.512-.121.765-.25 2.065-.342 3.452-.653 5.234-2.2 8.13-3.03 8.13a.924 .924 0 0 1 -.733 -.341c-1.068-1.212-1.183-5.218-.341-11.9l.017-.272-.149-.173a.967 .967 0 0 0 -.776 -.255c-.882 0-2.33.42-2.46 1.553a39.062 39.062 0 0 0 -.189 6.827c-.593 1.9-1.922 4.984-4.317 4.984a2.366 2.366 0 0 1 -1.7 -.787 7.231 7.231 0 0 1 -1.485 -5.139c.162-3.7 1.283-6.605 2.554-6.605a.718 .718 0 0 1 .66 .286c.4.57.227 1.958-.154 3.03l-.085.226a1.107 1.107 0 0 0 -.088 1.071 .753 .753 0 0 0 .9 .215c.746-.14 2.269-.94 2.4-1.938a5.186 5.186 0 0 0 -1.028 -3.689 2.911 2.911 0 0 0 -2.227 -.921c-3.25 0-5.89 3.8-6.142 8.84-.011.323-.008.636 0 .941-.887 3.468-1.614 4.679-1.9 4.939-.238-.4-.552-2.321.433-7.49l.02-.277-.149-.173a1.1 1.1 0 0 0 -.865 -.277 2.166 2.166 0 0 0 -2.286 1.416 7.615 7.615 0 0 0 -.1 .873l-.024.315c-.553 3.1-1.664 4.722-2.477 4.722a.7 .7 0 0 1 -.441 -.28c-.668-.755-1.243-2.725-.93-5.267.409-3.416 1.8-5.711 3.449-5.711a1.205 1.205 0 0 1 1.007 .332 2.289 2.289 0 0 1 -.076 1.838l-.05.135a1.291 1.291 0 0 0 -.116 1.23 .818 .818 0 0 0 .9 .233c.751-.14 2.27-1.026 2.4-2.031a3.173 3.173 0 0 0 -.82 -2.4 3.752 3.752 0 0 0 -2.86 -1.062c-2.827 0-6.365 2.139-7.02 8.2-1.059 3.519-2.406 5.159-2.982 5.159-.762 0-1.956-2.252-2.252-7.255a51.587 51.587 0 0 0 5.367 -12.886c.824-3.547 1.377-9.306.025-11.01a1.359 1.359 0 0 0 -1.09 -.559c-3.947 0-7.127 12.153-7.669 20.868a27.226 27.226 0 0 0 .058 4.037c-.884 4.186-2.549 6.852-3.315 6.852-.716 0-1.839-2.135-2.122-6.88a49.189 49.189 0 0 0 5.112 -12.273c.786-3.384 1.31-8.88.018-10.508a1.319 1.319 0 0 0 -1.057 -.541c-3.774 0-6.811 11.589-7.328 19.9-.348 6.01 1.305 10.02 2.826 11.634a2.949 2.949 0 0 0 2.084 1.07c1.842 0 3.5-2.5 4.574-5.107.962 3.124 2.6 5.128 4.281 5.128 1.282 0 2.661-1.237 3.876-3.44.728 2.059 2.158 3.127 3.394 3.127.054 0 .109 0 .17-.007 1.179-.1 2.307-1.015 3.258-2.606.384 2.142 1.215 3.415 2.3 3.415 1.318 0 2.429-1.845 3.229-3.771a5.525 5.525 0 0 0 4.901 3.388c2.064 0 4.04-1.473 5.54-4.09.923 3.044 2.593 3.538 3.579 3.538s1.945-.712 2.814-2.049l-.029.277a29.308 29.308 0 0 0 -5.631 9.629c-1.05 2.935-1.024 6.06.063 7.605a1.932 1.932 0 0 0 1.6 .911c1.851 0 4.649-2.534 7.579-24.439.46-3.182.8-6.653.8-6.653m-47.944 1.693c.36-6.165 2.415-14.455 3.449-15.846.291.879.341 4.073-.64 7.848a55.091 55.091 0 0 1 -2.809 7.998m8.741-.488c.359-6.57 2.574-15.468 3.662-16.826.321.863.4 4.251-.656 8.3a58.077 58.077 0 0 1 -3.006 8.526m34.27 15.591c-1.115 7.679-2.342 10.906-2.905 11.133a.517 .517 0 0 1 -.311 -.25c-.466-.67-.614-2.328.368-4.973a35.705 35.705 0 0 1 2.848 -5.91m-13.049 2.2a1.142 1.142 0 0 0 -.671 -.317 .758 .758 0 0 0 -.66 .563 4.948 4.948 0 0 1 -.244 .473c-.598 1.077-2.534 1.627-5.756 1.627a88.1 88.1 0 0 1 -13.181 -1.5c-5.3-.9-11.342-1.861-16.306-2.207a105.26 105.26 0 0 0 2.025 -15.693c0-.594-.9-.727-1.22-.727-.4 0-1.707.165-1.785 2.288l-.133 2.553c-.466 2.514-1.867 6.761-6.02 6.964-.093 0-.185.007-.277.007a5.248 5.248 0 0 1 -4.081 -1.842c-1.966-2.223-2.794-6.368-2.215-11.09a25.25 25.25 0 0 1 1.078 -4.794c6.623-.152 12.936-3.159 14.472-6.93a4.171 4.171 0 0 0 -.195 -3.949c-.9-1.34-2.717-1.936-4.95-1.636-4.624.6-9.214 4.479-11.788 9.939-2.911-.823-5.416-3.3-4.78-6.645.918-4.905 7.433-6.508 9.575-6.508a1.886 1.886 0 0 1 .627 .07 2.667 2.667 0 0 0 .929 .17 1.052 1.052 0 0 0 1.163 -.659c.163-.721-.817-1.187-1.195-1.366a2.921 2.921 0 0 0 -1.152 -.172c-2.919 0-11.343 2.038-12.655 8.6a6.678 6.678 0 0 0 .917 5.222 9.339 9.339 0 0 0 5.666 3.549 23.98 23.98 0 0 0 -1.224 5.5c-.54 4.97.538 9.365 2.956 12.06a8.379 8.379 0 0 0 6.408 2.821h.3a8.438 8.438 0 0 0 5.819 -2.627 47.565 47.565 0 0 1 -.822 4.789q-.544-.009-1.06-.009c-5.931 0-9.245 1.227-10.428 3.857a4.408 4.408 0 0 0 .28 4.364 6.276 6.276 0 0 0 5.219 2.765 5.971 5.971 0 0 0 .968 -.079c3.221-.576 5.467-3.345 7.05-8.7a111.338 111.338 0 0 1 16.325 2.306c.975.2 1.958.412 2.939.621 5.341 1.137 10.386 2.21 14.05 2.21 2.11 0 3.572-.365 4.466-1.112a2.6 2.6 0 0 0 1.028 -2.184 3.434 3.434 0 0 0 -1.469 -2.572m-44.088 6.833a3.36 3.36 0 0 1 -1.092 .189 2.614 2.614 0 0 1 -2.33 -1.3 2.947 2.947 0 0 1 .231 -3.01c.541-.877 2.266-1.914 7.353-2-1.041 3.447-2.442 5.503-4.162 6.121m3.331-40.609a4.8 4.8 0 0 1 .836 -.08 1.728 1.728 0 0 1 1.5 .617 2.407 2.407 0 0 1 -.12 2.21c-1.309 2.744-6.05 4.726-10 5.04 1.948-4.166 5.02-7.258 7.784-7.786" transform="translate(-21.75-9.688)" fill="#fff" fill-rule="evenodd"/></svg>