<svg><symbol viewBox="0 0 47.4 47.4"><path d="M23.7,0A23.7,23.7,0,1,0,47.4,23.7,23.7,23.7,0,0,0,23.7,0Zm0,45.4A21.7,21.7,0,1,1,45.4,23.7,21.73,21.73,0,0,1,23.7,45.4ZM23.59,7.14A8.57,8.57,0,0,0,15,15.71V30.39a.81.81,0,0,0,.81.81H31.36a.81.81,0,0,0,.81-.81V15.71a8.58,8.58,0,0,0-8.58-8.58Zm7,22.45H16.63V18.69l.14.16a2.62,2.62,0,0,0,4.31,0c.37-.41.55-.59.95-.6a1.06,1.06,0,0,1,.31.43,10.69,10.69,0,0,1,.49,1.23,9.72,9.72,0,0,0,.7,1.65,1.75,1.75,0,0,0,3.24,0,9.72,9.72,0,0,0,.7-1.65,10.6,10.6,0,0,1,.49-1.23,1.06,1.06,0,0,1,.31-.43c.4,0,.58.18.95.6a3.17,3.17,0,0,0,1.35,1Zm-9,8.58a2,2,0,1,0,4.1,0V32h-4.1Z" fill="#323232" bbox="0 0 47.4 47.4"/></symbol><symbol viewBox="0 0 47.4 47.4"><path d="M23.7,0A23.7,23.7,0,1,0,47.4,23.7,23.7,23.7,0,0,0,23.7,0Zm0,45.4A21.7,21.7,0,1,1,45.4,23.7,21.73,21.73,0,0,1,23.7,45.4ZM39.26,21c-.81-1.91-3.59-2.74-4.75-3l-.29-.07c1.43-2.9.75-7.64.22-9.24l-3.06.25c-.06,1-.77,2.88-3.44,5L26.25,15.1a12.21,12.21,0,0,0-4.69,0L20,14c-2.67-2.13-3.38-4-3.44-5l-3.06-.25c-.53,1.59-1.2,6.29.2,9.19l-.1,0c-1.16.27-3.94,1.1-4.75,3A2.31,2.31,0,0,0,9,23.2a2.42,2.42,0,0,0,2.13,1,9.11,9.11,0,0,0,3.06-.76A17.34,17.34,0,0,0,16,32.21a5.16,5.16,0,0,0-.33,2.62c.46,3.39,4.24,5.24,8.48,5.24s8-1.85,8.52-5.24a5.2,5.2,0,0,0-.52-3.08,17.05,17.05,0,0,0,1.58-8.34,9.37,9.37,0,0,0,3.26.84,2.42,2.42,0,0,0,2.13-1A2.31,2.31,0,0,0,39.26,21Zm-28.59.78c.5-1.18,3.36-1.85,3.36-1.85a2.34,2.34,0,0,0,.47,1.15C13.82,21.64,10.16,22.95,10.67,21.77Zm5.15-4.13c-1.29-1.37-1.11-4.81-.71-7,.14,2.54,3.74,5,3.74,5A22.05,22.05,0,0,0,15.82,17.64Zm14.49,13.3-.38.86.42.84a3.2,3.2,0,0,1,.33,1.91C30.33,37,27,38.07,24.13,38.07S18,37,17.63,34.56a3.17,3.17,0,0,1,.21-1.61l.32-.8-.37-.78c-2-4.37-2.22-8.62-.47-11.37,1.29-2,3.59-3.11,6.64-3.11s5.29,1.05,6.59,3C32.28,22.57,32.19,26.69,30.31,30.94Zm1.8-13.4a22,22,0,0,0-3-2s3.59-2.48,3.74-5C33.22,12.74,33.4,16.17,32.11,17.54Zm1.47,3.53a2.34,2.34,0,0,0,.47-1.15s2.86.66,3.36,1.85S34.26,21.64,33.58,21.07Z" fill="#323232" bbox="0 0 47.4 47.4"/></symbol><symbol viewBox="0 0 47.4 47.4"><path d="M23.7,0A23.7,23.7,0,1,0,47.4,23.7,23.7,23.7,0,0,0,23.7,0Zm0,45.4A21.7,21.7,0,1,1,45.4,23.7,21.73,21.73,0,0,1,23.7,45.4Zm-.06-5.58s22.24-10.19,0-32.75C1.4,29.64,23.64,39.83,23.64,39.83Zm-1-2.93c-2.1-1.41-5.31-4.19-6.42-8.34l6.42,4.13Zm0-6.58-6.83-4.48a13.67,13.67,0,0,1,.38-3.29l6.45,4.15Zm0-6-5.86-3.77A22,22,0,0,1,18.2,17.3l4.4,3.38Zm0-6.09L19.24,15.6a39.94,39.94,0,0,1,3.36-4.42Zm2-7.14a39.78,39.78,0,0,1,3.63,4.82L24.6,18.5Zm0,9.72,4.62-3.18a21.7,21.7,0,0,1,1.34,3l-6,3.85Zm0,6,6.54-4.16a13.42,13.42,0,0,1,.34,3.43L24.6,30.48Zm0,6,6.44-4.1A15.35,15.35,0,0,1,24.6,37Z" fill="#323232" bbox="0 0 47.4 47.4"/></symbol><symbol viewBox="0 0 47.4 47.4"><path d="M23.7,0A23.7,23.7,0,1,0,47.4,23.7,23.7,23.7,0,0,0,23.7,0Zm0,45.4A21.7,21.7,0,1,1,45.4,23.7,21.73,21.73,0,0,1,23.7,45.4ZM35.52,23.2h-4a1,1,0,1,0,0,2h4a1,1,0,1,0,0-2ZM24.47,29V12.18a.95.95,0,0,0-1.9,0V29a2.77,2.77,0,1,0,1.9,0Zm4.07-16.72a5,5,0,0,0-10,0V27.16a8.05,8.05,0,0,0-1.82,4.6,6.8,6.8,0,0,0,13.6,0,7.65,7.65,0,0,0-1.78-4.53Zm-5,24.22a4.8,4.8,0,0,1-4.8-4.77A5.25,5.25,0,0,1,20.59,28V12.32a3,3,0,0,1,6,0V28a5.08,5.08,0,0,1,1.75,3.71A4.8,4.8,0,0,1,23.54,36.54Zm12-17.33h-4a1,1,0,0,0,0,2h4a1,1,0,0,0,0-2Zm0-4h-4a1,1,0,1,0,0,2h4a1,1,0,1,0,0-2Zm0-4h-4a1,1,0,0,0,0,2h4a1,1,0,0,0,0-2Z" fill="#323232" bbox="0 0 47.4 47.4"/></symbol></svg>