<svg xmlns="http://www.w3.org/2000/svg" viewBox="0 0 47.4 47.4"><path d="M23.7,0A23.7,23.7,0,1,0,47.4,23.7,23.7,23.7,0,0,0,23.7,0Zm0,45.4A21.7,21.7,0,1,1,45.4,23.7,21.73,21.73,0,0,1,23.7,45.4ZM35.52,23.2h-4a1,1,0,1,0,0,2h4a1,1,0,1,0,0-2ZM24.47,29V12.18a.95.95,0,0,0-1.9,0V29a2.77,2.77,0,1,0,1.9,0Zm4.07-16.72a5,5,0,0,0-10,0V27.16a8.05,8.05,0,0,0-1.82,4.6,6.8,6.8,0,0,0,13.6,0,7.65,7.65,0,0,0-1.78-4.53Zm-5,24.22a4.8,4.8,0,0,1-4.8-4.77A5.25,5.25,0,0,1,20.59,28V12.32a3,3,0,0,1,6,0V28a5.08,5.08,0,0,1,1.75,3.71A4.8,4.8,0,0,1,23.54,36.54Zm12-17.33h-4a1,1,0,0,0,0,2h4a1,1,0,0,0,0-2Zm0-4h-4a1,1,0,1,0,0,2h4a1,1,0,1,0,0-2Zm0-4h-4a1,1,0,0,0,0,2h4a1,1,0,0,0,0-2Z" fill="#323232"/></svg>