<svg xmlns="http://www.w3.org/2000/svg" viewBox="0 0 31.38 31.38"><g opacity=".8"><path d="M15.69,0A15.69,15.69,0,1,0,31.38,15.69,15.69,15.69,0,0,0,15.69,0ZM23,12.7q0,.23,0,.47A10.36,10.36,0,0,1,7.08,21.89a7.35,7.35,0,0,0,5.39-1.51,3.64,3.64,0,0,1-3.4-2.53,3.65,3.65,0,0,0,1.64-.06,3.64,3.64,0,0,1-2.92-3.57v0a3.63,3.63,0,0,0,1.65.46A3.65,3.65,0,0,1,8.31,9.77a10.34,10.34,0,0,0,7.51,3.81A3.64,3.64,0,0,1,22,10.25a7.28,7.28,0,0,0,2.31-.88,3.65,3.65,0,0,1-1.6,2,7.3,7.3,0,0,0,2.09-.57A7.41,7.41,0,0,1,23,12.7Z" fill="#fff"/></g></svg>