<svg xmlns="http://www.w3.org/2000/svg" viewBox="0 0 31.38 31.38"><g opacity=".8"><path d="M17.12,16.67a2.54,2.54,0,0,0-.85-.13H14.18v3.4h.18l1.84,0a2.88,2.88,0,0,0,1-.25,1.36,1.36,0,0,0,.68-.59,1.78,1.78,0,0,0,.21-.88,1.65,1.65,0,0,0-.25-1A1.54,1.54,0,0,0,17.12,16.67ZM15.69,0A15.69,15.69,0,1,0,31.38,15.69,15.69,15.69,0,0,0,15.69,0Zm5.58,20a3.64,3.64,0,0,1-1,1.27,4.8,4.8,0,0,1-1.69.86,8.82,8.82,0,0,1-2.33.26H10.78V8.82h4.8a16.39,16.39,0,0,1,2.27.12,4.3,4.3,0,0,1,1.45.48,2.63,2.63,0,0,1,1.09,1.05A3.11,3.11,0,0,1,20.76,12a3.19,3.19,0,0,1-.5,1.77,2.94,2.94,0,0,1-1.37,1.14V15a3.7,3.7,0,0,1,2,1.08,3.12,3.12,0,0,1,.76,2.2A3.94,3.94,0,0,1,21.28,20Zm-5.44-5.86a2,2,0,0,0,.73-.19,1.11,1.11,0,0,0,.56-.53,1.89,1.89,0,0,0,.16-.79,1.54,1.54,0,0,0-.17-.68,1,1,0,0,0-.53-.5,2.11,2.11,0,0,0-.8-.16H14.18v2.88h.43Z" fill="#fff"/></g></svg>