<svg xmlns="http://www.w3.org/2000/svg" width="47.41" viewBox="0 0 47.406 47.38"><path d="M652.578 1395a2.42 2.42 0 0 1 -2.127 1.04 9.366 9.366 0 0 1 -3.256 -.84 17.086 17.086 0 0 1 -1.576 8.35 5.2 5.2 0 0 1 .517 3.08c-.488 3.38-4.283 5.23-8.524 5.23s-8.02-1.85-8.48-5.23a5.164 5.164 0 0 1 .33 -2.62 17.331 17.331 0 0 1 -1.786 -8.73 8.929 8.929 0 0 1 -3.065 .76 2.42 2.42 0 0 1 -2.127 -1.04 2.326 2.326 0 0 1 -.162 -2.22c.812-1.91 3.593-2.74 4.75-3.01l.1-.02c-1.4-2.9-.723-7.6-.2-9.19l3.057.25c.056 1 .766 2.88 3.436 5.01l1.585 1.09a12.914 12.914 0 0 1 2.4 -.23 12.732 12.732 0 0 1 2.289 .21l1.692-1.16c2.67-2.13 3.379-4.01 3.435-5.01l3.058-.26c.528 1.6 1.207 6.35-.224 9.24l.294.07c1.157.27 3.937 1.1 4.75 3.01A2.326 2.326 0 0 1 652.578 1395m-25.07-3.28s-2.859.66-3.362 1.85 3.155-.14 3.835-.7A2.317 2.317 0 0 1 627.509 1391.72m3.3.07c-1.752 2.75-1.578 7 .467 11.37l.367.78-.318.8a3.209 3.209 0 0 0 -.208 1.62c.329 2.41 3.6 3.5 6.5 3.5s6.2-1.1 6.545-3.52a3.177 3.177 0 0 0 -.33 -1.9l-.416-.84.378-.86c1.878-4.25 1.97-8.37.244-11.02-1.3-1.99-3.575-3.04-6.587-3.04C634.4 1388.68 632.1 1389.75 630.81 1391.79m20.1 1.78c-.5-1.19-3.361-1.85-3.361-1.85a2.328 2.328 0 0 1 -.474 1.15C647.75 1393.43 651.4 1394.75 650.9 1393.57m-18.568-6.1s-3.595-2.48-3.735-5.02c-.4 2.18-.584 5.62.7 6.99A21 21 0 0 1 632.329 1387.47m10.235-.1s3.595-2.47 3.736-5.01c.4 2.17.584 5.61-.705 6.98A22.893 22.893 0 0 0 642.561 1387.37m-5.375-15.57a23.7 23.7 0 1 1 -23.7 23.7A23.7 23.7 0 0 1 637.183 1371.8m.003 45.4a21.7 21.7 0 1 1 21.7 -21.7A21.722 21.722 0 0 1 637.183 1417.2" transform="translate(-613.47-1371.81)" fill="#323232" fill-rule="evenodd"/></svg>