<svg xmlns="http://www.w3.org/2000/svg" viewBox="0 0 20.63 19.719"><path d="m1083.58 656.46l-1.21 8.912a2.025 2.025 0 0 1 -1.88 1.635h-10.88a2.025 2.025 0 0 1 -1.88 -1.635l-1.47-10.287a3.733 3.733 0 0 1 -.13 -1.054h-2.13a1 1 0 1 1 0 -2h4a.992 .992 0 0 1 .1 1.979h13.97c1.1 0 1.77 1.131 1.51 2.45m-13.85 8.518l-1.31-9h13.2l-.03.2-1.18 8.788a.034 .034 0 0 0 -.001 .014h-10.67m.52 3.007a1.874 1.874 0 1 1 -1.88 1.874 1.874 1.874 0 0 1 1.88 -1.874m9 0a1.874 1.874 0 1 1 -1.88 1.874 1.874 1.874 0 0 1 1.88 -1.874" transform="translate(-1063-652.03)" fill="#343434" fill-rule="evenodd"/></svg>