<svg xmlns="http://www.w3.org/2000/svg" width="47.37" viewBox="0 0 47.375 47.38"><path d="m71.44 1499.62s-22.24-10.18 0-32.75c22.24 22.57 0 32.75 0 32.75m7.516-17.18l-6.536 4.16-.021 3.68 6.894-4.41a13.37 13.37 0 0 0 -.337 -3.43m-15.39 3.19l6.833 4.48v-3.62l-6.453-4.15a13.622 13.622 0 0 0 -.38 3.29m6.833-1.52v-3.63l-4.396-3.38a21.756 21.756 0 0 0 -1.464 3.24m5.86-2.32v-7.04a39.184 39.184 0 0 0 -3.356 4.42m5.356 2.9l3.629-2.6a39.493 39.493 0 0 0 -3.629 -4.82v7.42m.021 2.3l-.021 3.68 5.981-3.85a21.714 21.714 0 0 0 -1.337 -3.01m1.82 11.08l-6.443 4.1-.021 4.16a15.3 15.3 0 0 0 6.463 -8.26m-8.462 8.2v-4.21l-6.417-4.13c1.105 4.14 4.32 6.93 6.42 8.34m1.097-36.9a23.7 23.7 0 1 1 -23.7 23.7 23.7 23.7 0 0 1 23.703 -23.7m-.003 45.4a21.7 21.7 0 1 1 21.7 -21.7 21.722 21.722 0 0 1 -21.697 21.7" transform="translate(-47.813-1459.81)" fill="#323232" fill-rule="evenodd"/></svg>