<svg xmlns="http://www.w3.org/2000/svg" viewBox="0 0 37.24 37.24"><defs><style>.cls-1{opacity:0.5;}.cls-2{fill:#fff;}.cls-3{opacity:0.8;}</style></defs><title>Ресурс 1</title><g id="Слой_2" data-name="Слой 2"><g id="Подвал"><g id="Соцсети"><g id="Тветер"><g id="Обводка" class="cls-1"><path class="cls-2" d="M18.62,0A18.62,18.62,0,1,0,37.24,18.62,18.62,18.62,0,0,0,18.62,0Zm0,34.31A15.69,15.69,0,1,1,34.31,18.62,15.69,15.69,0,0,1,18.62,34.31Z"/></g><g id="Твитер" class="cls-3"><path class="cls-2" d="M18.62,2.93A15.69,15.69,0,1,0,34.31,18.62,15.69,15.69,0,0,0,18.62,2.93Zm7.32,12.7q0,.23,0,.47A10.36,10.36,0,0,1,10,24.82a7.35,7.35,0,0,0,5.39-1.51A3.64,3.64,0,0,1,12,20.78a3.65,3.65,0,0,0,1.64-.06,3.64,3.64,0,0,1-2.92-3.57v0a3.63,3.63,0,0,0,1.65.46,3.65,3.65,0,0,1-1.13-4.86,10.34,10.34,0,0,0,7.51,3.81A3.64,3.64,0,0,1,25,13.18a7.28,7.28,0,0,0,2.31-.88,3.65,3.65,0,0,1-1.6,2,7.3,7.3,0,0,0,2.09-.57A7.41,7.41,0,0,1,25.94,15.62Z"/></g></g></g></g></g></svg>